<svg width="19" height="21" viewBox="0 0 19 21" fill="none" xmlns="http://www.w3.org/2000/svg">
<path d="M18.525 12.975L16.275 10.725C15.975 10.425 15.525 10.425 15.225 10.725L8.25 17.7V21H11.55L18.525 14.025C18.825 13.725 18.825 13.275 18.525 12.975ZM10.95 19.5H9.75V18.3L13.5 14.55L14.7 15.75L10.95 19.5ZM15.75 14.7L14.55 13.5L15.75 12.3L16.95 13.5L15.75 14.7ZM3.75 15.75H5.25V17.25H3.75V15.75ZM6.75 12H9.75V13.5H6.75V12ZM3.75 12H5.25V13.5H3.75V12ZM6.75 8.25H12.75V9.75H6.75V8.25ZM3.75 8.25H5.25V9.75H3.75V8.25Z" fill="#02369C"/>
<path d="M1.5 19.5V3.75H3.75V6H12.75V3.75H15V8.25H16.5V3.75C16.5 2.925 15.825 2.25 15 2.25H12.75V1.5C12.75 0.675 12.075 0 11.25 0H5.25C4.425 0 3.75 0.675 3.75 1.5V2.25H1.5C0.675 2.25 0 2.925 0 3.75V19.5C0 20.325 0.675 21 1.5 21H5.25V19.5H1.5ZM5.25 1.5H11.25V4.5H5.25V1.5Z" fill="#02369C"/>
</svg>
